<svg width="302" height="48" viewBox="0 0 302 48" fill="none" xmlns="http://www.w3.org/2000/svg">
<path d="M291.281 12.5117C292.625 12.5117 293.793 12.6877 294.785 13.0397C295.809 13.3597 296.545 13.6797 296.993 13.9997C298.081 14.7357 298.753 14.2557 299.009 12.5597H300.017C299.953 13.4557 299.905 14.5597 299.873 15.8717C299.841 17.1517 299.825 18.8637 299.825 21.0077H298.817C298.657 19.8237 298.353 18.6557 297.905 17.5037C297.457 16.3517 296.801 15.4077 295.937 14.6717C295.105 13.9357 294.017 13.5677 292.673 13.5677C291.745 13.5677 290.961 13.8397 290.321 14.3837C289.681 14.8957 289.361 15.6477 289.361 16.6397C289.361 17.5997 289.649 18.4477 290.225 19.1837C290.801 19.8877 291.537 20.5757 292.433 21.2477C293.361 21.8877 294.321 22.5757 295.313 23.3117C296.369 24.1117 297.329 24.9117 298.193 25.7117C299.057 26.4797 299.745 27.3277 300.257 28.2557C300.769 29.1837 301.025 30.2877 301.025 31.5677C301.025 33.0077 300.609 34.2717 299.777 35.3597C298.945 36.4157 297.841 37.2317 296.465 37.8077C295.121 38.3837 293.617 38.6717 291.953 38.6717C290.993 38.6717 290.129 38.5757 289.361 38.3837C288.625 38.1917 287.985 37.9517 287.441 37.6637C287.025 37.4717 286.625 37.2957 286.241 37.1357C285.889 36.9437 285.553 36.7837 285.233 36.6557C284.913 36.5597 284.625 36.6717 284.369 36.9917C284.145 37.3117 283.969 37.7597 283.841 38.3357H282.833C282.897 37.3117 282.945 36.0637 282.977 34.5917C283.009 33.1197 283.025 31.1677 283.025 28.7357H284.033C284.225 30.4637 284.577 31.9997 285.089 33.3437C285.601 34.6557 286.289 35.6957 287.153 36.4637C288.049 37.1997 289.169 37.5677 290.513 37.5677C291.057 37.5677 291.585 37.4557 292.097 37.2317C292.609 37.0077 293.025 36.6397 293.345 36.1277C293.697 35.6157 293.873 34.9597 293.873 34.1597C293.873 32.7517 293.409 31.5837 292.481 30.6557C291.585 29.7277 290.433 28.7197 289.025 27.6317C288.001 26.7997 287.025 25.9837 286.097 25.1837C285.201 24.3517 284.465 23.4557 283.889 22.4957C283.313 21.5037 283.025 20.3837 283.025 19.1357C283.025 17.6957 283.409 16.4797 284.177 15.4877C284.945 14.4957 285.953 13.7597 287.201 13.2797C288.481 12.7677 289.841 12.5117 291.281 12.5117Z" fill="black"/>
<path d="M267.02 12.5117C269.356 12.5117 271.404 12.9437 273.164 13.8077C274.924 14.6717 276.3 16.0637 277.292 17.9837C278.284 19.9037 278.78 22.4477 278.78 25.6157C278.78 28.7837 278.284 31.3277 277.292 33.2477C276.3 35.1357 274.924 36.5117 273.164 37.3757C271.404 38.2397 269.356 38.6717 267.02 38.6717C264.748 38.6717 262.716 38.2397 260.924 37.3757C259.164 36.5117 257.772 35.1357 256.748 33.2477C255.756 31.3277 255.26 28.7837 255.26 25.6157C255.26 22.4477 255.756 19.9037 256.748 17.9837C257.772 16.0637 259.164 14.6717 260.924 13.8077C262.716 12.9437 264.748 12.5117 267.02 12.5117ZM267.02 13.4717C265.74 13.4717 264.668 14.4317 263.804 16.3517C262.94 18.2397 262.508 21.3277 262.508 25.6157C262.508 29.9037 262.94 32.9917 263.804 34.8797C264.668 36.7677 265.74 37.7117 267.02 37.7117C268.332 37.7117 269.404 36.7677 270.236 34.8797C271.1 32.9917 271.532 29.9037 271.532 25.6157C271.532 21.3277 271.1 18.2397 270.236 16.3517C269.404 14.4317 268.332 13.4717 267.02 13.4717Z" fill="black"/>
<path d="M249.398 12.5117C250.422 12.5117 251.254 12.7357 251.894 13.1837C252.534 13.5997 252.998 14.1437 253.286 14.8157C253.606 15.4877 253.766 16.1917 253.766 16.9277C253.766 18.1117 253.414 19.0877 252.71 19.8557C252.038 20.5917 251.142 20.9597 250.022 20.9597C248.902 20.9597 248.022 20.6877 247.382 20.1437C246.774 19.5677 246.47 18.8157 246.47 17.8877C246.47 16.9917 246.662 16.2557 247.046 15.6797C247.462 15.0717 247.974 14.5597 248.582 14.1437C248.134 14.0157 247.686 14.0317 247.238 14.1917C246.63 14.2877 246.054 14.5437 245.51 14.9597C244.966 15.3437 244.502 15.8397 244.118 16.4477C243.734 17.0237 243.43 17.6637 243.206 18.3677C242.982 19.0397 242.87 19.6957 242.87 20.3357V33.0557C242.87 34.5917 243.238 35.6317 243.974 36.1757C244.742 36.7197 245.878 36.9917 247.382 36.9917V37.9997C246.646 37.9677 245.574 37.9357 244.166 37.9037C242.758 37.8397 241.286 37.8077 239.75 37.8077C238.47 37.8077 237.174 37.8397 235.862 37.9037C234.55 37.9357 233.558 37.9677 232.886 37.9997V36.9917C234.006 36.9917 234.79 36.7517 235.238 36.2717C235.718 35.7917 235.958 34.8797 235.958 33.5357V18.4157C235.958 16.9757 235.734 15.9197 235.286 15.2477C234.87 14.5437 234.07 14.1917 232.886 14.1917V13.1837C233.91 13.2797 234.902 13.3277 235.862 13.3277C237.206 13.3277 238.454 13.2797 239.606 13.1837C240.79 13.0557 241.878 12.8797 242.87 12.6557V17.1197C243.254 16.2557 243.766 15.4717 244.406 14.7677C245.046 14.0637 245.782 13.5197 246.614 13.1357C247.446 12.7197 248.374 12.5117 249.398 12.5117Z" fill="black"/>
<path d="M226.992 12.5117C228.016 12.5117 228.848 12.7357 229.488 13.1837C230.128 13.5997 230.592 14.1437 230.88 14.8157C231.2 15.4877 231.36 16.1917 231.36 16.9277C231.36 18.1117 231.008 19.0877 230.304 19.8557C229.632 20.5917 228.736 20.9597 227.616 20.9597C226.496 20.9597 225.616 20.6877 224.976 20.1437C224.368 19.5677 224.064 18.8157 224.064 17.8877C224.064 16.9917 224.256 16.2557 224.64 15.6797C225.056 15.0717 225.568 14.5597 226.176 14.1437C225.728 14.0157 225.28 14.0317 224.832 14.1917C224.224 14.2877 223.648 14.5437 223.104 14.9597C222.56 15.3437 222.096 15.8397 221.712 16.4477C221.328 17.0237 221.024 17.6637 220.8 18.3677C220.576 19.0397 220.464 19.6957 220.464 20.3357V33.0557C220.464 34.5917 220.832 35.6317 221.568 36.1757C222.336 36.7197 223.472 36.9917 224.976 36.9917V37.9997C224.24 37.9677 223.168 37.9357 221.76 37.9037C220.352 37.8397 218.88 37.8077 217.344 37.8077C216.064 37.8077 214.768 37.8397 213.456 37.9037C212.144 37.9357 211.152 37.9677 210.48 37.9997V36.9917C211.6 36.9917 212.384 36.7517 212.832 36.2717C213.312 35.7917 213.552 34.8797 213.552 33.5357V18.4157C213.552 16.9757 213.328 15.9197 212.88 15.2477C212.464 14.5437 211.664 14.1917 210.48 14.1917V13.1837C211.504 13.2797 212.496 13.3277 213.456 13.3277C214.8 13.3277 216.048 13.2797 217.2 13.1837C218.384 13.0557 219.472 12.8797 220.464 12.6557V17.1197C220.848 16.2557 221.36 15.4717 222 14.7677C222.64 14.0637 223.376 13.5197 224.208 13.1357C225.04 12.7197 225.968 12.5117 226.992 12.5117Z" fill="black"/>
<path d="M192.26 38.3357C190.82 38.3357 189.62 38.0637 188.66 37.5197C187.7 36.9757 186.996 36.2557 186.548 35.3597C186.1 34.4317 185.876 33.4237 185.876 32.3357C185.876 30.9597 186.18 29.8397 186.788 28.9757C187.428 28.1117 188.244 27.4077 189.236 26.8637C190.228 26.3197 191.268 25.8717 192.356 25.5197C193.476 25.1677 194.532 24.8317 195.524 24.5117C196.548 24.1597 197.364 23.7597 197.972 23.3117C198.612 22.8317 198.932 22.2237 198.932 21.4877V17.7437C198.932 16.9117 198.788 16.1757 198.5 15.5357C198.244 14.8637 197.828 14.3517 197.252 13.9997C196.708 13.6477 195.988 13.4717 195.092 13.4717C194.452 13.4717 193.812 13.5677 193.172 13.7597C192.532 13.9197 192.004 14.2077 191.588 14.6237C192.484 14.9437 193.172 15.4397 193.652 16.1117C194.164 16.7517 194.42 17.4877 194.42 18.3197C194.42 19.4077 194.036 20.2717 193.268 20.9117C192.532 21.5517 191.652 21.8717 190.628 21.8717C189.476 21.8717 188.596 21.5197 187.988 20.8157C187.412 20.0797 187.124 19.1997 187.124 18.1757C187.124 17.2477 187.348 16.4797 187.796 15.8717C188.276 15.2637 188.932 14.6877 189.764 14.1437C190.66 13.6317 191.732 13.2317 192.98 12.9437C194.26 12.6557 195.636 12.5117 197.108 12.5117C198.58 12.5117 199.908 12.6717 201.092 12.9917C202.276 13.2797 203.268 13.8237 204.068 14.6237C204.804 15.3597 205.284 16.2717 205.508 17.3597C205.732 18.4157 205.844 19.7597 205.844 21.3917V34.4477C205.844 35.2477 205.924 35.8077 206.084 36.1277C206.244 36.4157 206.516 36.5597 206.9 36.5597C207.188 36.5597 207.46 36.4797 207.716 36.3197C208.004 36.1597 208.308 35.9677 208.628 35.7437L209.108 36.5597C208.436 37.1357 207.652 37.5837 206.756 37.9037C205.892 38.1917 204.916 38.3357 203.828 38.3357C202.644 38.3357 201.7 38.1757 200.996 37.8557C200.292 37.5037 199.78 37.0397 199.46 36.4637C199.172 35.8877 199.028 35.2157 199.028 34.4477C198.26 35.6637 197.332 36.6237 196.244 37.3277C195.156 37.9997 193.828 38.3357 192.26 38.3357ZM195.668 35.2637C196.308 35.2637 196.884 35.1197 197.396 34.8317C197.94 34.5117 198.452 33.9997 198.932 33.2957V23.4557C198.644 23.9357 198.244 24.3677 197.732 24.7517C197.22 25.1357 196.676 25.5357 196.1 25.9517C195.524 26.3357 194.964 26.7677 194.42 27.2477C193.908 27.7277 193.492 28.3197 193.172 29.0237C192.852 29.7277 192.692 30.5757 192.692 31.5677C192.692 32.8157 192.964 33.7437 193.508 34.3517C194.052 34.9597 194.772 35.2637 195.668 35.2637Z" fill="black"/>
<path d="M153.866 4.01562C154.698 4.04762 155.786 4.07963 157.13 4.11163C158.474 4.14363 159.818 4.15962 161.162 4.15962C162.698 4.15962 164.186 4.14363 165.626 4.11163C167.066 4.07963 168.09 4.06363 168.698 4.06363C172.666 4.06363 175.626 4.76763 177.578 6.17562C179.562 7.58363 180.554 9.39162 180.554 11.5996C180.554 12.7196 180.218 13.8556 179.546 15.0076C178.874 16.1596 177.834 17.1836 176.426 18.0796C175.018 18.9756 173.194 19.6316 170.954 20.0476V20.1436C173.962 20.3676 176.346 20.9116 178.106 21.7756C179.866 22.6396 181.13 23.6796 181.898 24.8956C182.666 26.1116 183.05 27.3756 183.05 28.6876C183.05 30.7036 182.522 32.3996 181.466 33.7756C180.41 35.1516 178.89 36.2076 176.906 36.9436C174.922 37.6476 172.554 37.9996 169.802 37.9996C169.034 37.9996 167.93 37.9836 166.49 37.9516C165.05 37.8876 163.306 37.8556 161.258 37.8556C159.85 37.8556 158.474 37.8716 157.13 37.9036C155.786 37.9036 154.698 37.9356 153.866 37.9996V37.0396C154.89 36.9756 155.658 36.8476 156.17 36.6556C156.682 36.4636 157.018 36.0796 157.178 35.5036C157.37 34.9276 157.466 34.0636 157.466 32.9116V9.10362C157.466 7.91962 157.37 7.05562 157.178 6.51163C157.018 5.93563 156.666 5.55163 156.122 5.35963C155.61 5.13563 154.858 5.00762 153.866 4.97562V4.01562ZM168.074 4.97562C166.826 4.97562 166.01 5.24763 165.626 5.79163C165.274 6.33562 165.098 7.43962 165.098 9.10362V32.9116C165.098 34.0316 165.178 34.8796 165.338 35.4556C165.53 36.0316 165.85 36.4156 166.298 36.6076C166.778 36.7996 167.482 36.8956 168.41 36.8956C170.714 36.8956 172.394 36.1756 173.45 34.7356C174.538 33.2636 175.082 31.1836 175.082 28.4956C175.082 26.0316 174.458 24.1276 173.21 22.7836C171.994 21.4396 169.962 20.7676 167.114 20.7676H163.034C163.034 20.7676 163.034 20.6396 163.034 20.3836C163.034 20.0956 163.034 19.9516 163.034 19.9516H167.162C168.666 19.9516 169.818 19.5996 170.618 18.8956C171.418 18.1596 171.978 17.1996 172.298 16.0156C172.618 14.7996 172.778 13.5036 172.778 12.1276C172.778 9.75962 172.41 7.98363 171.674 6.79963C170.938 5.58363 169.738 4.97562 168.074 4.97562Z" fill="black"/>
<path d="M137.32 12.5117C138.344 12.5117 139.176 12.7357 139.816 13.1837C140.456 13.5997 140.92 14.1437 141.208 14.8157C141.528 15.4877 141.688 16.1917 141.688 16.9277C141.688 18.1117 141.336 19.0877 140.632 19.8557C139.96 20.5917 139.064 20.9597 137.944 20.9597C136.824 20.9597 135.944 20.6877 135.304 20.1437C134.696 19.5677 134.392 18.8157 134.392 17.8877C134.392 16.9917 134.584 16.2557 134.968 15.6797C135.384 15.0717 135.896 14.5597 136.504 14.1437C136.056 14.0157 135.608 14.0317 135.16 14.1917C134.552 14.2877 133.976 14.5437 133.432 14.9597C132.888 15.3437 132.424 15.8397 132.04 16.4477C131.656 17.0237 131.352 17.6637 131.128 18.3677C130.904 19.0397 130.792 19.6957 130.792 20.3357V33.0557C130.792 34.5917 131.16 35.6317 131.896 36.1757C132.664 36.7197 133.8 36.9917 135.304 36.9917V37.9997C134.568 37.9677 133.496 37.9357 132.088 37.9037C130.68 37.8397 129.208 37.8077 127.672 37.8077C126.392 37.8077 125.096 37.8397 123.784 37.9037C122.472 37.9357 121.48 37.9677 120.808 37.9997V36.9917C121.928 36.9917 122.712 36.7517 123.16 36.2717C123.64 35.7917 123.88 34.8797 123.88 33.5357V18.4157C123.88 16.9757 123.656 15.9197 123.208 15.2477C122.792 14.5437 121.992 14.1917 120.808 14.1917V13.1837C121.832 13.2797 122.824 13.3277 123.784 13.3277C125.128 13.3277 126.376 13.2797 127.528 13.1837C128.712 13.0557 129.8 12.8797 130.792 12.6557V17.1197C131.176 16.2557 131.688 15.4717 132.328 14.7677C132.968 14.0637 133.704 13.5197 134.536 13.1357C135.368 12.7197 136.296 12.5117 137.32 12.5117Z" fill="black"/>
<path d="M106.052 12.5117C108.388 12.5117 110.436 12.9437 112.196 13.8077C113.956 14.6717 115.332 16.0637 116.324 17.9837C117.316 19.9037 117.812 22.4477 117.812 25.6157C117.812 28.7837 117.316 31.3277 116.324 33.2477C115.332 35.1357 113.956 36.5117 112.196 37.3757C110.436 38.2397 108.388 38.6717 106.052 38.6717C103.78 38.6717 101.748 38.2397 99.9556 37.3757C98.1956 36.5117 96.8036 35.1357 95.7796 33.2477C94.7876 31.3277 94.2916 28.7837 94.2916 25.6157C94.2916 22.4477 94.7876 19.9037 95.7796 17.9837C96.8036 16.0637 98.1956 14.6717 99.9556 13.8077C101.748 12.9437 103.78 12.5117 106.052 12.5117ZM106.052 13.4717C104.772 13.4717 103.7 14.4317 102.836 16.3517C101.972 18.2397 101.54 21.3277 101.54 25.6157C101.54 29.9037 101.972 32.9917 102.836 34.8797C103.7 36.7677 104.772 37.7117 106.052 37.7117C107.364 37.7117 108.436 36.7677 109.268 34.8797C110.132 32.9917 110.564 29.9037 110.564 25.6157C110.564 21.3277 110.132 18.2397 109.268 16.3517C108.436 14.4317 107.364 13.4717 106.052 13.4717Z" fill="black"/>
<path d="M84.767 0.799805C86.111 0.799805 87.167 1.13581 87.935 1.80781C88.735 2.44781 89.135 3.3438 89.135 4.4958C89.135 5.6478 88.735 6.5598 87.935 7.2318C87.167 7.8718 86.111 8.1918 84.767 8.1918C83.423 8.1918 82.351 7.8718 81.551 7.2318C80.783 6.5598 80.399 5.6478 80.399 4.4958C80.399 3.3438 80.783 2.44781 81.551 1.80781C82.351 1.13581 83.423 0.799805 84.767 0.799805ZM88.511 12.6558V33.5358C88.511 34.8798 88.735 35.7918 89.183 36.2718C89.663 36.7518 90.463 36.9918 91.583 36.9918V37.9998C91.007 37.9678 90.111 37.9358 88.895 37.9038C87.679 37.8398 86.447 37.8078 85.199 37.8078C83.951 37.8078 82.687 37.8398 81.407 37.9038C80.127 37.9358 79.167 37.9678 78.527 37.9998V36.9918C79.647 36.9918 80.431 36.7518 80.879 36.2718C81.359 35.7918 81.599 34.8798 81.599 33.5358V18.4158C81.599 16.9758 81.375 15.9198 80.927 15.2478C80.511 14.5438 79.711 14.1918 78.527 14.1918V13.1838C79.551 13.2798 80.543 13.3278 81.503 13.3278C82.847 13.3278 84.095 13.2798 85.247 13.1838C86.431 13.0558 87.519 12.8798 88.511 12.6558Z" fill="black"/>
<path d="M66.8986 12.5117C68.2426 12.5117 69.3306 12.6877 70.1626 13.0397C71.0266 13.3597 71.6986 13.8077 72.1786 14.3837C72.6906 14.9917 73.0586 15.7757 73.2826 16.7357C73.5386 17.6957 73.6666 18.9917 73.6666 20.6237V33.5357C73.6666 34.8797 73.8906 35.7917 74.3386 36.2717C74.8186 36.7517 75.6186 36.9917 76.7386 36.9917V37.9997C76.1306 37.9677 75.2186 37.9357 74.0026 37.9037C72.7866 37.8397 71.5866 37.8077 70.4026 37.8077C69.1866 37.8077 67.9866 37.8397 66.8026 37.9037C65.6506 37.9357 64.7706 37.9677 64.1626 37.9997V36.9917C65.1226 36.9917 65.7946 36.7517 66.1786 36.2717C66.5626 35.7917 66.7546 34.8797 66.7546 33.5357V18.6077C66.7546 17.8077 66.6746 17.1197 66.5146 16.5437C66.3546 15.9357 66.0666 15.4717 65.6506 15.1517C65.2346 14.7997 64.6106 14.6237 63.7786 14.6237C62.9146 14.6237 62.1146 14.8637 61.3786 15.3437C60.6746 15.8237 60.0986 16.4957 59.6506 17.3597C59.2346 18.1917 59.0266 19.1357 59.0266 20.1917V33.5357C59.0266 34.8797 59.2186 35.7917 59.6026 36.2717C60.0186 36.7517 60.6906 36.9917 61.6186 36.9917V37.9997C61.0426 37.9677 60.1946 37.9357 59.0746 37.9037C57.9866 37.8397 56.8506 37.8077 55.6666 37.8077C54.4506 37.8077 53.2026 37.8397 51.9226 37.9037C50.6426 37.9357 49.6826 37.9677 49.0426 37.9997V36.9917C50.1626 36.9917 50.9466 36.7517 51.3946 36.2717C51.8746 35.7917 52.1146 34.8797 52.1146 33.5357V18.4157C52.1146 16.9757 51.8906 15.9197 51.4426 15.2477C51.0266 14.5437 50.2266 14.1917 49.0426 14.1917V13.1837C50.0666 13.2797 51.0586 13.3277 52.0186 13.3277C53.3626 13.3277 54.6106 13.2797 55.7626 13.1837C56.9466 13.0557 58.0346 12.8797 59.0266 12.6557V16.9757C59.8266 15.3437 60.9146 14.1917 62.2906 13.5197C63.6666 12.8477 65.2026 12.5117 66.8986 12.5117Z" fill="black"/>
<path d="M43.8372 12.6558V32.7678C43.8372 34.2078 44.0612 35.2798 44.5092 35.9838C44.9572 36.6558 45.7572 36.9918 46.9092 36.9918V37.9998C45.9172 37.9038 44.9252 37.8558 43.9332 37.8558C42.5892 37.8558 41.3412 37.9038 40.1892 37.9998C39.0372 38.0958 37.9492 38.2718 36.9252 38.5278V34.2078C36.1572 35.8078 35.0852 36.9598 33.7092 37.6638C32.3652 38.3358 30.8612 38.6718 29.1972 38.6718C27.8532 38.6718 26.7652 38.4958 25.9332 38.1438C25.1012 37.7918 24.4452 37.3438 23.9652 36.7998C23.4212 36.1918 23.0372 35.3918 22.8132 34.3998C22.5892 33.4078 22.4772 32.1278 22.4772 30.5598V18.4158C22.4772 16.9758 22.2532 15.9198 21.8052 15.2478C21.3892 14.5438 20.5892 14.1918 19.4052 14.1918V13.1838C20.4292 13.2798 21.4212 13.3278 22.3812 13.3278C23.7252 13.3278 24.9732 13.2798 26.1252 13.1838C27.3092 13.0558 28.3972 12.8798 29.3892 12.6558V32.5278C29.3892 33.3278 29.4532 34.0318 29.5812 34.6398C29.7412 35.2478 30.0292 35.7278 30.4452 36.0798C30.8612 36.3998 31.4692 36.5598 32.2692 36.5598C33.1332 36.5598 33.9012 36.3198 34.5732 35.8398C35.2772 35.3598 35.8372 34.7038 36.2532 33.8718C36.7012 33.0078 36.9252 32.0478 36.9252 30.9918V18.4158C36.9252 16.9758 36.7012 15.9198 36.2532 15.2478C35.8372 14.5438 35.0372 14.1918 33.8532 14.1918V13.1838C34.8772 13.2798 35.8692 13.3278 36.8292 13.3278C38.1732 13.3278 39.4212 13.2798 40.5732 13.1838C41.7572 13.0558 42.8452 12.8798 43.8372 12.6558Z" fill="black"/>
<path d="M0.895996 47.0236V46.0636C2.176 45.9356 3.264 45.5516 4.16 44.9116C5.056 44.3036 5.744 43.2476 6.224 41.7436C6.704 40.2396 6.944 38.1276 6.944 35.4076V9.10362C6.944 7.91962 6.848 7.05562 6.656 6.51163C6.496 5.93563 6.16 5.55163 5.648 5.35963C5.136 5.13563 4.368 5.00762 3.344 4.97562V4.01562C4.144 4.04762 5.184 4.07963 6.464 4.11163C7.776 4.14363 9.152 4.15962 10.592 4.15962C12.032 4.15962 13.424 4.14363 14.768 4.11163C16.144 4.07963 17.28 4.04762 18.176 4.01562V4.97562C17.184 5.00762 16.416 5.13563 15.872 5.35963C15.36 5.55163 15.008 5.93563 14.816 6.51163C14.656 7.05562 14.576 7.91962 14.576 9.10362V26.6716C14.576 27.9836 14.576 29.4076 14.576 30.9436C14.576 32.4476 14.512 33.9196 14.384 35.3596C14.288 36.7996 14.08 38.0796 13.76 39.1996C13.12 41.4076 11.728 43.2636 9.584 44.7676C7.472 46.2716 4.576 47.0236 0.895996 47.0236Z" fill="black"/>
</svg>
